<svg width="1035" height="848" viewBox="0 0 1035 848" fill="none" xmlns="http://www.w3.org/2000/svg">
<path d="M157.113 49.6461V1" stroke="white" stroke-width="2" stroke-linecap="round" stroke-linejoin="round"/>
<path d="M85.2156 49.6461V1" stroke="white" stroke-width="2" stroke-linecap="round" stroke-linejoin="round"/>
<path d="M229.024 49.6461V1" stroke="white" stroke-width="2" stroke-linecap="round" stroke-linejoin="round"/>
<path d="M300.921 49.6461V1" stroke="white" stroke-width="2" stroke-linecap="round" stroke-linejoin="round"/>
<path d="M372.818 49.6461V1" stroke="white" stroke-width="2" stroke-linecap="round" stroke-linejoin="round"/>
<path d="M444.729 49.6461V1" stroke="white" stroke-width="2" stroke-linecap="round" stroke-linejoin="round"/>
<path d="M516.625 49.6461V1" stroke="white" stroke-width="2" stroke-linecap="round" stroke-linejoin="round"/>
<path d="M588.522 49.6461V1" stroke="white" stroke-width="2" stroke-linecap="round" stroke-linejoin="round"/>
<path d="M660.434 49.6461V1" stroke="white" stroke-width="2" stroke-linecap="round" stroke-linejoin="round"/>
<path d="M732.331 49.6461V1" stroke="white" stroke-width="2" stroke-linecap="round" stroke-linejoin="round"/>
<path d="M804.228 49.6461V1" stroke="white" stroke-width="2" stroke-linecap="round" stroke-linejoin="round"/>
<path d="M876.139 49.6461V1" stroke="white" stroke-width="2" stroke-linecap="round" stroke-linejoin="round"/>
<path d="M948.036 49.6461V1" stroke="white" stroke-width="2" stroke-linecap="round" stroke-linejoin="round"/>
<path d="M157.113 290.118V241.472" stroke="white" stroke-width="2" stroke-linecap="round" stroke-linejoin="round"/>
<path d="M85.2156 290.118V241.472" stroke="white" stroke-width="2" stroke-linecap="round" stroke-linejoin="round"/>
<path d="M229.024 290.118V241.472" stroke="white" stroke-width="2" stroke-linecap="round" stroke-linejoin="round"/>
<path d="M300.921 290.118V241.472" stroke="white" stroke-width="2" stroke-linecap="round" stroke-linejoin="round"/>
<path d="M372.818 290.118V241.472" stroke="white" stroke-width="2" stroke-linecap="round" stroke-linejoin="round"/>
<path d="M444.729 290.118V241.472" stroke="white" stroke-width="2" stroke-linecap="round" stroke-linejoin="round"/>
<path d="M516.625 290.118V241.472" stroke="white" stroke-width="2" stroke-linecap="round" stroke-linejoin="round"/>
<path d="M588.522 290.118V241.472" stroke="white" stroke-width="2" stroke-linecap="round" stroke-linejoin="round"/>
<path d="M660.434 290.118V241.472" stroke="white" stroke-width="2" stroke-linecap="round" stroke-linejoin="round"/>
<path d="M732.331 290.118V241.472" stroke="white" stroke-width="2" stroke-linecap="round" stroke-linejoin="round"/>
<path d="M804.228 290.118V241.472" stroke="white" stroke-width="2" stroke-linecap="round" stroke-linejoin="round"/>
<path d="M876.139 290.118V241.472" stroke="white" stroke-width="2" stroke-linecap="round" stroke-linejoin="round"/>
<path d="M948.036 290.118V241.472" stroke="white" stroke-width="2" stroke-linecap="round" stroke-linejoin="round"/>
<path d="M157.113 530.591V481.945" stroke="white" stroke-width="2" stroke-linecap="round" stroke-linejoin="round"/>
<path d="M85.2156 530.591V481.945" stroke="white" stroke-width="2" stroke-linecap="round" stroke-linejoin="round"/>
<path d="M229.024 530.591V481.945" stroke="white" stroke-width="2" stroke-linecap="round" stroke-linejoin="round"/>
<path d="M300.921 530.591V481.945" stroke="white" stroke-width="2" stroke-linecap="round" stroke-linejoin="round"/>
<path d="M372.818 530.591V481.945" stroke="white" stroke-width="2" stroke-linecap="round" stroke-linejoin="round"/>
<path d="M444.729 530.591V481.945" stroke="white" stroke-width="2" stroke-linecap="round" stroke-linejoin="round"/>
<path d="M516.625 530.591V481.945" stroke="white" stroke-width="2" stroke-linecap="round" stroke-linejoin="round"/>
<path d="M588.522 530.591V481.945" stroke="white" stroke-width="2" stroke-linecap="round" stroke-linejoin="round"/>
<path d="M660.434 530.591V481.945" stroke="white" stroke-width="2" stroke-linecap="round" stroke-linejoin="round"/>
<path d="M732.331 530.591V481.945" stroke="white" stroke-width="2" stroke-linecap="round" stroke-linejoin="round"/>
<path d="M804.228 530.591V481.945" stroke="white" stroke-width="2" stroke-linecap="round" stroke-linejoin="round"/>
<path d="M876.139 530.591V481.945" stroke="white" stroke-width="2" stroke-linecap="round" stroke-linejoin="round"/>
<path d="M948.036 530.591V481.945" stroke="white" stroke-width="2" stroke-linecap="round" stroke-linejoin="round"/>
<path d="M157.113 771.063V722.417" stroke="white" stroke-width="2" stroke-linecap="round" stroke-linejoin="round"/>
<path d="M85.2156 771.063V722.417" stroke="white" stroke-width="2" stroke-linecap="round" stroke-linejoin="round"/>
<path d="M229.024 771.063V722.417" stroke="white" stroke-width="2" stroke-linecap="round" stroke-linejoin="round"/>
<path d="M300.921 771.063V722.417" stroke="white" stroke-width="2" stroke-linecap="round" stroke-linejoin="round"/>
<path d="M372.818 771.063V722.417" stroke="white" stroke-width="2" stroke-linecap="round" stroke-linejoin="round"/>
<path d="M444.729 771.063V722.417" stroke="white" stroke-width="2" stroke-linecap="round" stroke-linejoin="round"/>
<path d="M516.625 771.063V722.417" stroke="white" stroke-width="2" stroke-linecap="round" stroke-linejoin="round"/>
<path d="M588.522 771.063V722.417" stroke="white" stroke-width="2" stroke-linecap="round" stroke-linejoin="round"/>
<path d="M660.434 771.063V722.417" stroke="white" stroke-width="2" stroke-linecap="round" stroke-linejoin="round"/>
<path d="M732.331 771.063V722.417" stroke="white" stroke-width="2" stroke-linecap="round" stroke-linejoin="round"/>
<path d="M804.228 771.063V722.417" stroke="white" stroke-width="2" stroke-linecap="round" stroke-linejoin="round"/>
<path d="M876.139 771.063V722.417" stroke="white" stroke-width="2" stroke-linecap="round" stroke-linejoin="round"/>
<path d="M948.036 771.063V722.417" stroke="white" stroke-width="2" stroke-linecap="round" stroke-linejoin="round"/>
<path fill-rule="evenodd" clip-rule="evenodd" d="M992.04 513.065C992.153 511.65 992.407 512.287 992.52 510.801C995.986 511.339 1000.78 503.05 1001.79 496.783C1001.9 496.09 1002.39 495.623 1002.27 497.151C1001.21 505.285 996.028 512.527 992.04 513.065Z" fill="#AD988E"/>
<path fill-rule="evenodd" clip-rule="evenodd" d="M973.652 569.788C977.683 575.219 1000.39 574.215 1000.94 569.887C1001.56 564.893 968.744 563.196 973.652 569.788Z" fill="#D9E4EB"/>
<path fill-rule="evenodd" clip-rule="evenodd" d="M994.755 530.676C994.755 530.209 994.755 529.601 994.883 528.851C1005.72 528.511 1014.68 522.316 1021.86 515.653C1022.17 515.37 1022.9 515.257 1022.17 515.865C1014.69 524.72 1005.62 529.855 994.755 530.676Z" fill="#AD988E"/>
<path fill-rule="evenodd" clip-rule="evenodd" d="M1007.47 526.941C1008.36 526.559 1008.49 526.46 1009.38 526.078C1008.84 527.861 1016.31 527.323 1024.02 526.078C1025.22 525.909 1025.24 526.305 1023.88 526.616C1015.26 528.398 1009.17 528.879 1007.47 526.913V526.941Z" fill="#AD988E"/>
<path fill-rule="evenodd" clip-rule="evenodd" d="M1014.83 521.934C1014.35 522.089 1013.99 522.5 1013.51 522.641C1013.79 519.917 1014.32 517.223 1015.08 514.592C1015.25 513.786 1015.56 513.998 1015.45 514.734C1015.05 517.138 1014.22 520.958 1014.83 521.934Z" fill="#AD988E"/>
<path fill-rule="evenodd" clip-rule="evenodd" d="M987.683 552.035C988.334 551.356 988.107 550.324 988.758 549.645C990.852 553.634 1003.54 551.752 1014.22 547.721C1015.79 547.141 1016.85 547.381 1014.39 548.456C1001.22 554.214 991.332 554.341 987.669 552.035H987.683Z" fill="#AD988E"/>
<path fill-rule="evenodd" clip-rule="evenodd" d="M890.679 34.8641C738.908 14.7352 801.724 49.7735 556.867 40.197C541.096 39.5887 510.19 36.3777 480.486 36.5898C456.03 36.7596 441.433 42.8563 406.086 39.1643C223.168 20.0821 164.637 41.5125 114.353 36.5475C82.3441 33.4072 28.9341 31.6249 5.96329 46.4493C-4.31982 53.0552 -0.486642 69.0819 11.6211 70.4965C40.2356 73.948 97.0545 66.1821 115.343 65.786C269.194 62.2214 12.8658 144.477 419.452 116.71C551.732 107.685 569.159 134.561 767.961 115.295C906.083 101.871 852.178 121.632 944.768 90.0313C971.77 80.8085 988.39 102.465 1016.18 95.9866C1060.17 85.7453 1026.93 52.9703 890.75 34.9207L890.679 34.8641Z" fill="white"/>
<path fill-rule="evenodd" clip-rule="evenodd" d="M887.435 517.328C736.599 497.205 799.028 532.243 555.68 522.663C539.992 522.055 509.29 518.842 479.77 519.055C455.45 519.224 411.394 521.885 376.068 521.248C191.452 518.149 165.853 523.979 115.893 519.012C87.2298 516.182 41.3885 514.455 15.8039 524.927C1.32478 530.871 -4.42475 554.149 3.72856 567.564C9.59052 577.229 19.1918 578.517 35.0345 577.866C121.235 574.3 34.3457 574.399 331.183 595.838C456.842 604.909 508.123 617.899 712.575 595.838C840.877 581.998 843.857 549.904 921.848 574.739C948.894 583.343 969.812 603.041 1012.1 578.404C1064.53 547.809 1022.77 535.371 887.421 517.314L887.435 517.328Z" fill="white"/>
<path fill-rule="evenodd" clip-rule="evenodd" d="M888.05 768.948C717.007 754.723 797.172 771.551 546.861 762.931C469.414 760.271 444.664 767.099 392.734 761.893C205.73 743.158 145.95 764.254 94.5694 759.261C73.3897 757.213 43.0442 755.747 17.9466 758.991C-5.45955 762.006 -6.19684 795.037 17.0647 798.963C43.4345 803.416 103.359 817.954 140.413 817.683C295.784 816.488 127.864 844.91 523.195 847.67C653.208 848.58 734.341 847.812 787.385 841.254C839.228 834.839 871.757 845.92 917.297 812.591C950.938 787.967 987.139 817.996 1016.3 818.978C1059.08 820.4 1024.77 757.924 908.434 768.365L888.05 768.948Z" fill="white"/>
<path fill-rule="evenodd" clip-rule="evenodd" d="M145.362 278.422C304.809 255.688 235.007 293.213 481.759 283.713C497.652 283.109 528.798 279.924 558.731 280.12C583.377 280.303 622.875 290.112 658.51 286.786C864.182 267.589 877.011 285.018 927.684 280.092C954.425 277.51 996.004 275.882 1022.63 283.713C1040.06 288.849 1036.51 314.15 1018.35 314.585C987.836 315.273 942.679 308.523 926.715 309.098C763.52 314.964 735.382 370.451 612.013 365.497C487.005 360.488 481.702 386.926 283.1 354.706C154.001 333.783 224.658 354.116 131.436 322.767C104.154 313.589 47.7932 327.72 19.0427 327.72C-30.1624 327.804 17.4035 282.632 145.362 278.366V278.422Z" fill="white"/>
<path fill-rule="evenodd" clip-rule="evenodd" d="M980.285 569.561C981.827 570.509 982.548 570.255 983.539 568.854C982.888 563.691 985.052 557.651 987.259 553.223C988.652 551.159 989.932 549.02 991.092 546.816C993.337 543.049 994.781 538.859 995.335 534.509C996.042 526.63 994.119 519.402 993.581 512.145C992.959 503.842 993.652 495.538 993.426 486.825C993.426 486.019 992.931 486.089 992.959 486.528C991.981 495.413 991.687 504.361 992.082 513.291C992.478 520.151 994.274 527.267 993.185 534.311C992.391 538.869 990.641 543.208 988.051 547.042C981.587 557.665 980.271 560.777 980.257 569.505L980.285 569.561Z" fill="#AD988E"/>
<path fill-rule="evenodd" clip-rule="evenodd" d="M988.913 548.046L990.851 545.146C987.499 546.476 984.543 530.888 985.193 522.004C985.193 520.448 984.472 520.774 984.444 522.174C984.147 532.43 984.302 542.246 988.899 548.046H988.913Z" fill="#AD988E"/>
</svg>
