<svg width="61" height="61" viewBox="0 0 61 61" fill="none" xmlns="http://www.w3.org/2000/svg">
<g clip-path="url(#clip0_1_1701)">
<path d="M30.196 60.2695C46.3717 60.2695 59.4846 46.9381 59.4846 30.4928C59.4846 14.0476 46.3717 0.716125 30.196 0.716125C14.0204 0.716125 0.907471 14.0476 0.907471 30.4928C0.907471 46.9381 14.0204 60.2695 30.196 60.2695Z" fill="#0D304B"/>
<path fill-rule="evenodd" clip-rule="evenodd" d="M30.196 1.21613C14.3043 1.21613 1.40747 14.3159 1.40747 30.4928C1.40747 46.6697 14.3043 59.7695 30.196 59.7695C46.0878 59.7695 58.9846 46.6697 58.9846 30.4928C58.9846 14.3159 46.0878 1.21613 30.196 1.21613ZM0.407471 30.4928C0.407471 13.7793 13.7365 0.216125 30.196 0.216125C46.6556 0.216125 59.9846 13.7793 59.9846 30.4928C59.9846 47.2064 46.6556 60.7695 30.196 60.7695C13.7365 60.7695 0.407471 47.2064 0.407471 30.4928Z" fill="#BDDEF4"/>
<path fill-rule="evenodd" clip-rule="evenodd" d="M17.7906 17.1367C18.5778 16.3619 19.8441 16.372 20.6189 17.1592L44.4837 41.4074C45.2585 42.1946 45.2484 43.4609 44.4611 44.2357C43.6739 45.0105 42.4076 45.0004 41.6328 44.2132L17.768 19.965C16.9932 19.1778 17.0033 17.9115 17.7906 17.1367Z" fill="#BDDEF4"/>
<path fill-rule="evenodd" clip-rule="evenodd" d="M44.4611 17.1367C45.2484 17.9115 45.2585 19.1778 44.4837 19.965L20.6189 44.2132C19.8441 45.0004 18.5778 45.0105 17.7906 44.2357C17.0033 43.4609 16.9932 42.1946 17.768 41.4074L41.6328 17.1592C42.4076 16.372 43.6739 16.3619 44.4611 17.1367Z" fill="#BDDEF4"/>
</g>
<defs>
<clipPath id="clip0_1_1701">
<rect width="60" height="61" fill="white" transform="translate(0.203125)"/>
</clipPath>
</defs>
</svg>
