<svg width="74" height="73" viewBox="0 0 74 73" fill="none" xmlns="http://www.w3.org/2000/svg">
<path d="M37.2569 71.9532C56.7865 71.9532 72.6183 56.1204 72.6183 36.5896C72.6183 17.0589 56.7865 1.22607 37.2569 1.22607C17.7273 1.22607 1.89539 17.0589 1.89539 36.5896C1.89539 56.1204 17.7273 71.9532 37.2569 71.9532Z" fill="#8CC63F" stroke="#C5E1A5" stroke-width="2" stroke-miterlimit="10"/>
<path d="M40.5809 27.0839C41.1608 27.0839 41.3588 27.4375 41.2598 28.1307L37.851 48.9386C37.5964 50.2683 37.8509 50.8482 38.9683 50.8482H40.9627C41.4012 50.8482 41.6417 51.1877 41.5568 51.7111L40.9627 55.5303C40.9331 55.8102 40.8261 56.0762 40.6537 56.2986C40.4813 56.521 40.2503 56.6909 39.9867 56.7893C38.7486 57.2934 37.4192 57.5343 36.0829 57.4966C31.599 57.4966 29.7461 54.8938 30.6796 49.0093L33.1691 33.8595C32.0499 33.7661 30.9389 33.5912 29.8451 33.3362C29.3642 33.223 29.1662 32.8835 29.2652 32.2469L29.9441 27.9043C29.9637 27.6796 30.0628 27.4694 30.2235 27.3112C30.3843 27.1531 30.5961 27.0574 30.821 27.0414L40.5809 27.0839ZM43.3107 17.1821C42.9584 18.8864 42.3829 20.5367 41.5992 22.0905C41.463 22.4622 41.207 22.778 40.8714 22.988C40.5359 23.198 40.1401 23.2904 39.7463 23.2505H35.7858C35.2059 23.2505 35.0078 22.911 35.1493 22.2179L36.0404 16.786C36.1253 16.0929 36.4223 15.7393 37.0022 15.7393H42.6601C43.24 15.7393 43.4381 16.0929 43.3391 16.786L43.3107 17.1821Z" fill="white"/>
</svg>
