<svg width="187" height="73" viewBox="0 0 187 73" fill="none" xmlns="http://www.w3.org/2000/svg">
<g clip-path="url(#clip0_1_1620)">
<path d="M37.0101 71.5961C56.5559 71.5961 72.4009 55.8831 72.4009 36.5C72.4009 17.1169 56.5559 1.40384 37.0101 1.40384C17.4643 1.40384 1.61926 17.1169 1.61926 36.5C1.61926 55.8831 17.4643 71.5961 37.0101 71.5961Z" fill="#8CC63F"/>
<path fill-rule="evenodd" clip-rule="evenodd" d="M37.0101 2.40384C18.0087 2.40384 2.61926 17.6771 2.61926 36.5C2.61926 55.3229 18.0087 70.5961 37.0101 70.5961C56.0115 70.5961 71.4009 55.3229 71.4009 36.5C71.4009 17.6771 56.0115 2.40384 37.0101 2.40384ZM0.619263 36.5C0.619263 16.5568 16.9199 0.403839 37.0101 0.403839C57.1003 0.403839 73.4009 16.5568 73.4009 36.5C73.4009 56.4432 57.1003 72.5961 37.0101 72.5961C16.9199 72.5961 0.619263 56.4432 0.619263 36.5Z" fill="#C5E1A5"/>
<path d="M40.351 27.0662C40.9314 27.0662 41.1296 27.4171 41.0305 28.105L37.6188 48.7555C37.3782 50.0751 37.6188 50.6368 38.7372 50.6368H40.7474C41.1862 50.6368 41.4269 50.9877 41.3278 51.5072L40.7474 55.2975C40.7147 55.5742 40.6064 55.8368 40.4343 56.057C40.2622 56.2772 40.0327 56.4466 39.7706 56.5469C38.5299 57.0409 37.1997 57.275 35.8634 57.2348C31.3759 57.2348 29.5214 54.6658 30.4416 48.8117L32.9331 33.7766C31.8129 33.6838 30.7011 33.5102 29.6064 33.2572C29.125 33.1449 28.9268 32.8079 29.0259 32.1762L29.7054 27.8664C29.7251 27.6434 29.8243 27.4347 29.9851 27.2777C30.146 27.1208 30.358 27.0259 30.5831 27.01L40.351 27.0662ZM43.0832 17.2392C42.7305 18.9306 42.1546 20.5685 41.3703 22.1106C41.236 22.4809 40.9802 22.7956 40.6439 23.0044C40.3076 23.2132 39.9103 23.3038 39.5158 23.2617H35.5095C34.915 23.2617 34.7168 22.9248 34.8725 22.2369L35.7502 16.8462C35.8493 16.1443 36.1324 15.8073 36.727 15.8073H42.3895C42.9841 15.8073 43.1681 16.1443 43.0832 16.8462V17.2392Z" fill="white"/>
<path d="M149.397 71.5961C168.943 71.5961 184.788 55.8831 184.788 36.5C184.788 17.1169 168.943 1.40384 149.397 1.40384C129.851 1.40384 114.006 17.1169 114.006 36.5C114.006 55.8831 129.851 71.5961 149.397 71.5961Z" fill="#0D304B"/>
<path fill-rule="evenodd" clip-rule="evenodd" d="M149.397 2.40384C130.396 2.40384 115.006 17.6771 115.006 36.5C115.006 55.3229 130.396 70.5961 149.397 70.5961C168.399 70.5961 183.788 55.3229 183.788 36.5C183.788 17.6771 168.399 2.40384 149.397 2.40384ZM113.006 36.5C113.006 16.5568 129.307 0.403839 149.397 0.403839C169.487 0.403839 185.788 16.5568 185.788 36.5C185.788 56.4432 169.487 72.5961 149.397 72.5961C129.307 72.5961 113.006 56.4432 113.006 36.5Z" fill="#74AACE"/>
<path d="M164.077 53.1637C164.154 52.8745 164.15 52.57 164.065 52.283C163.98 51.996 163.818 51.7376 163.596 51.5353L152.073 41.2872C151.823 41.0625 151.509 40.9201 151.174 40.8798C150.84 40.8396 150.501 40.9035 150.204 41.0625C149.908 41.2279 149.67 41.4798 149.524 41.7836C149.377 42.0875 149.328 42.4288 149.383 42.7613L152.016 57.6981C152.065 57.9891 152.194 58.2613 152.389 58.4843C152.583 58.7073 152.837 58.8724 153.12 58.9616C153.406 59.0574 153.713 59.0714 154.006 59.0018C154.299 58.9323 154.566 58.7822 154.777 58.5686L156.036 57.3192L158.174 61.0392C158.408 61.4226 158.784 61.6998 159.222 61.8114H159.576C159.902 61.8161 160.223 61.7232 160.496 61.5448L163.412 59.5934C163.595 59.4685 163.75 59.3083 163.869 59.1226C163.989 58.937 164.069 58.7295 164.106 58.5124C164.14 58.2963 164.13 58.0755 164.077 57.8633C164.023 57.651 163.927 57.4516 163.794 57.277L161.685 54.4693L162.803 54.2587C163.096 54.2075 163.368 54.0786 163.593 53.8858C163.817 53.693 163.985 53.4434 164.077 53.1637ZM161.699 58.1474L159.774 59.439L157.226 55.0028C157.143 54.8574 157.026 54.7334 156.886 54.6407C156.746 54.548 156.586 54.4894 156.419 54.4693H156.277C156.132 54.4683 155.988 54.4964 155.855 54.5519C155.721 54.6074 155.6 54.6891 155.499 54.7922L153.984 56.2942L151.818 43.9826L161.303 52.4057L159.547 52.7567C159.365 52.7912 159.195 52.8711 159.053 52.9889C158.911 53.1066 158.801 53.2582 158.735 53.4296C158.668 53.601 158.647 53.7865 158.673 53.9684C158.698 54.1503 158.77 54.3227 158.882 54.4693L161.699 58.1474Z" fill="#E3F2FD"/>
<path d="M140.861 31.1654L139.601 34.4925L138.313 31.1654C138.235 30.9594 138.096 30.782 137.914 30.6566C137.732 30.5311 137.515 30.4637 137.293 30.4634C137.072 30.4637 136.855 30.5311 136.673 30.6566C136.491 30.782 136.352 30.9594 136.274 31.1654L135.014 34.4925L133.726 31.1654C133.623 30.8973 133.416 30.6809 133.152 30.5638C132.888 30.4466 132.588 30.4382 132.317 30.5406C132.047 30.643 131.829 30.8478 131.711 31.1097C131.593 31.3717 131.584 31.6695 131.688 31.9375L133.995 37.946C134.075 38.1492 134.215 38.3237 134.397 38.4465C134.579 38.5693 134.794 38.6346 135.014 38.6338C135.238 38.6344 135.457 38.5676 135.641 38.4422C135.826 38.3169 135.967 38.1389 136.048 37.9319L137.308 34.6048L138.582 37.946C138.667 38.1482 138.811 38.321 138.995 38.4433C139.178 38.5655 139.394 38.6318 139.615 38.6338C139.836 38.6316 140.052 38.5635 140.234 38.4383C140.415 38.3131 140.555 38.1367 140.634 37.9319L142.914 31.9235C143.015 31.6536 143.004 31.3547 142.883 31.0928C142.762 30.8308 142.542 30.6272 142.269 30.5267C141.997 30.4261 141.696 30.437 141.432 30.5567C141.168 30.6765 140.962 30.8954 140.861 31.1654Z" fill="#E3F2FD"/>
<path d="M151.648 38.6338C151.87 38.6335 152.086 38.5661 152.268 38.4407C152.45 38.3153 152.59 38.1378 152.667 37.9319L154.946 31.9235C154.997 31.7899 155.02 31.6476 155.015 31.5051C155.009 31.3626 154.976 31.2225 154.916 31.0928C154.856 30.9631 154.771 30.8463 154.666 30.7492C154.561 30.6521 154.437 30.5765 154.302 30.5267C154.168 30.4769 154.024 30.4539 153.881 30.4591C153.737 30.4642 153.595 30.4975 153.465 30.5568C153.334 30.6161 153.216 30.7003 153.118 30.8047C153.02 30.9092 152.944 31.0317 152.894 31.1654L151.634 34.4925L150.346 31.1654C150.268 30.9595 150.129 30.782 149.947 30.6566C149.764 30.5312 149.548 30.4638 149.326 30.4635C149.105 30.4638 148.888 30.5312 148.706 30.6566C148.524 30.782 148.385 30.9595 148.307 31.1654L147.047 34.4925L145.759 31.1654C145.656 30.8973 145.449 30.6809 145.185 30.5638C144.921 30.4466 144.621 30.4383 144.35 30.5407C144.08 30.643 143.862 30.8478 143.744 31.1098C143.626 31.3717 143.617 31.6695 143.721 31.9376L146.028 37.946C146.11 38.1482 146.25 38.3216 146.432 38.4441C146.613 38.5667 146.828 38.6327 147.047 38.6338C147.271 38.6344 147.489 38.5676 147.674 38.4423C147.859 38.3169 148 38.139 148.081 37.9319L149.355 34.6189L150.629 37.96C150.716 38.1574 150.858 38.3259 151.039 38.4453C151.219 38.5648 151.431 38.6303 151.648 38.6338Z" fill="#E3F2FD"/>
<path d="M158.924 38.6339C159.146 38.6335 159.362 38.5661 159.545 38.4407C159.727 38.3153 159.866 38.1379 159.944 37.9319L161.204 34.6048L162.492 37.946C162.572 38.1493 162.712 38.3238 162.894 38.4466C163.076 38.5693 163.291 38.6346 163.511 38.6339C163.733 38.6335 163.949 38.5661 164.131 38.4407C164.313 38.3153 164.453 38.1379 164.53 37.9319L166.81 31.9235C166.862 31.79 166.887 31.6475 166.883 31.5043C166.879 31.3611 166.846 31.2201 166.787 31.0895C166.728 30.9589 166.643 30.8412 166.537 30.7434C166.432 30.6456 166.308 30.5695 166.172 30.5197C166.038 30.4659 165.894 30.4397 165.749 30.4426C165.604 30.4454 165.461 30.4773 165.329 30.5363C165.197 30.5953 165.078 30.6802 164.98 30.7859C164.881 30.8916 164.805 31.016 164.757 31.1514L163.497 34.4785L162.209 31.1514C162.131 30.9455 161.992 30.768 161.81 30.6426C161.628 30.5171 161.411 30.4498 161.189 30.4495C160.966 30.4489 160.747 30.5158 160.563 30.6411C160.378 30.7664 160.236 30.9444 160.156 31.1514L158.896 34.4785L157.608 31.1514C157.557 31.0187 157.48 30.8972 157.381 30.794C157.283 30.6907 157.165 30.6078 157.034 30.5498C156.903 30.4917 156.762 30.4598 156.619 30.4558C156.476 30.4519 156.333 30.476 156.199 30.5267C156.065 30.5774 155.943 30.6537 155.839 30.7514C155.735 30.849 155.651 30.966 155.593 31.0957C155.534 31.2254 155.502 31.3652 155.498 31.5073C155.494 31.6493 155.518 31.7908 155.569 31.9235L157.891 37.9319C157.97 38.1401 158.111 38.3192 158.296 38.4448C158.481 38.5705 158.7 38.6364 158.924 38.6339Z" fill="#E3F2FD"/>
<path d="M168.055 21.2121H130.145C128.21 21.2158 126.355 21.9806 124.988 23.3387C123.622 24.6968 122.854 26.5372 122.854 28.4559V40.0096C122.858 41.9259 123.627 43.7626 124.993 45.1177C126.36 46.4727 128.212 47.2357 130.145 47.2394H147.599C147.888 47.2394 148.166 47.1256 148.37 46.9229C148.574 46.7202 148.689 46.4451 148.689 46.1584C148.689 45.8717 148.574 45.5968 148.37 45.3941C148.166 45.1914 147.888 45.0774 147.599 45.0774H130.145C128.792 45.0737 127.495 44.5382 126.54 43.5882C125.585 42.6382 125.048 41.3512 125.048 40.0096V28.4559C125.048 27.1143 125.585 25.8274 126.54 24.8773C127.495 23.9273 128.792 23.3918 130.145 23.3881H168.055C169.411 23.3881 170.71 23.922 171.669 24.8725C172.627 25.8229 173.166 27.1118 173.166 28.4559V40.0096C173.166 41.3536 172.627 42.6428 171.669 43.5932C170.71 44.5436 169.411 45.0774 168.055 45.0774H160.297C160.008 45.0774 159.731 45.1914 159.527 45.3941C159.322 45.5968 159.207 45.8717 159.207 46.1584C159.207 46.4451 159.322 46.7202 159.527 46.9229C159.731 47.1256 160.008 47.2394 160.297 47.2394H168.055C169.988 47.2357 171.84 46.4727 173.206 45.1177C174.573 43.7626 175.342 41.9259 175.346 40.0096V28.4559C175.346 26.5372 174.578 24.6968 173.211 23.3387C171.844 21.9806 169.99 21.2158 168.055 21.2121Z" fill="#E3F2FD"/>
</g>
<defs>
<clipPath id="clip0_1_1620">
<rect width="186" height="73" fill="white" transform="translate(0.203613)"/>
</clipPath>
</defs>
</svg>
