<svg width="73" height="73" viewBox="0 0 73 73" fill="none" xmlns="http://www.w3.org/2000/svg">
<path d="M36.5508 71.9532C56.0804 71.9532 71.9123 56.1204 71.9123 36.5896C71.9123 17.0589 56.0804 1.22607 36.5508 1.22607C17.0212 1.22607 1.18933 17.0589 1.18933 36.5896C1.18933 56.1204 17.0212 71.9532 36.5508 71.9532Z" fill="#0D304B" stroke="#74AACE" stroke-width="2" stroke-miterlimit="10"/>
<path d="M51.2045 53.4086C51.2891 53.1155 51.2889 52.8044 51.2038 52.5115C51.1186 52.2185 50.9522 51.9557 50.7237 51.7536L39.2241 41.4275C38.9726 41.2028 38.6575 41.0618 38.3224 41.024C37.9873 40.9863 37.6487 41.0536 37.3536 41.2167C37.0584 41.3799 36.8212 41.6307 36.6748 41.9345C36.5285 42.2384 36.4802 42.5802 36.5366 42.9127L39.1534 57.9634C39.2077 58.2566 39.3402 58.5297 39.5369 58.7538C39.7336 58.9779 39.9871 59.1447 40.2708 59.2365C40.5536 59.3336 40.8583 59.3479 41.149 59.2778C41.4396 59.2076 41.7042 59.0559 41.9115 58.8405L43.1704 57.5815L45.3063 61.33C45.54 61.7163 45.9157 61.9957 46.353 62.1081H46.7207C47.0442 62.1075 47.3598 62.0089 47.626 61.8252L50.5539 59.8589C50.7377 59.7343 50.894 59.5734 51.0131 59.3861C51.1323 59.1987 51.2119 58.9889 51.247 58.7697C51.2806 58.5519 51.2704 58.3297 51.217 58.116C51.1635 57.9022 51.0679 57.7012 50.9358 57.5249L48.8283 54.6958L49.9457 54.4837C50.232 54.4322 50.4994 54.3055 50.7207 54.1166C50.9419 53.9277 51.1088 53.6833 51.2045 53.4086ZM48.8424 58.4161L46.9046 59.7175L44.3728 55.2475C44.2898 55.101 44.1736 54.9761 44.0336 54.8827C43.8935 54.7894 43.7336 54.7302 43.5665 54.71H43.4109C43.2682 54.7092 43.1267 54.7378 42.9953 54.7937C42.864 54.8497 42.7455 54.9319 42.6471 55.0354L41.1336 56.5489L38.9695 44.1434L48.4323 52.6306L46.6924 52.9843C46.5085 53.0154 46.3358 53.0938 46.1913 53.2119C46.0469 53.33 45.9356 53.4837 45.8686 53.6578C45.8015 53.8319 45.7809 54.0205 45.8088 54.205C45.8367 54.3895 45.9121 54.5635 46.0277 54.71L48.8424 58.4161Z" fill="#E3F2FD"/>
<path d="M27.9933 31.2143L26.7344 34.5668L25.4473 31.2143C25.3696 31.0069 25.2305 30.828 25.0485 30.7017C24.8666 30.5753 24.6504 30.5074 24.4288 30.5071C24.2068 30.5054 23.9898 30.5724 23.8074 30.6991C23.6251 30.8257 23.4864 31.0057 23.4105 31.2143L22.1374 34.5668L20.8645 31.2143C20.8255 31.0643 20.7554 30.9242 20.6587 30.8031C20.562 30.682 20.4409 30.5826 20.3032 30.5114C20.1656 30.4402 20.0145 30.3989 19.8597 30.39C19.705 30.3811 19.5502 30.4049 19.4053 30.4598C19.2604 30.5148 19.1286 30.5998 19.0187 30.709C18.9088 30.8183 18.8231 30.9494 18.7673 31.094C18.7115 31.2386 18.6867 31.3933 18.6947 31.5481C18.7026 31.7029 18.7431 31.8542 18.8135 31.9923L21.1332 38.0466C21.2132 38.2514 21.3532 38.4273 21.535 38.551C21.7168 38.6747 21.9317 38.7405 22.1516 38.7397C22.3731 38.7394 22.5893 38.6715 22.7713 38.5451C22.9532 38.4187 23.0923 38.2399 23.17 38.0324L24.4288 34.68L25.7161 38.0466C25.796 38.2514 25.9361 38.4273 26.1178 38.551C26.2996 38.6747 26.5145 38.7405 26.7344 38.7397C26.956 38.7394 27.1721 38.6715 27.3541 38.5451C27.5361 38.4187 27.6752 38.2399 27.7529 38.0324L30.0301 31.9782C30.0891 31.8427 30.12 31.6966 30.1207 31.5488C30.1214 31.401 30.0921 31.2546 30.0345 31.1185C29.9768 30.9824 29.8921 30.8595 29.7854 30.7572C29.6787 30.6549 29.5524 30.5754 29.414 30.5235C29.2756 30.4716 29.1281 30.4483 28.9805 30.4553C28.8329 30.4622 28.6882 30.4992 28.5552 30.5638C28.4223 30.6284 28.304 30.7194 28.2074 30.8313C28.1108 30.9431 28.0379 31.0734 27.9933 31.2143Z" fill="#E3F2FD"/>
<path d="M38.7715 38.7397C38.9931 38.7394 39.2093 38.6715 39.3912 38.5451C39.5732 38.4187 39.7122 38.2399 39.7899 38.0324L42.0672 31.9782C42.1263 31.8427 42.1571 31.6966 42.1578 31.5488C42.1586 31.401 42.1292 31.2546 42.0716 31.1185C42.0139 30.9824 41.9292 30.8595 41.8225 30.7572C41.7158 30.6549 41.5895 30.5754 41.4511 30.5235C41.3127 30.4716 41.1653 30.4483 41.0176 30.4553C40.87 30.4622 40.7253 30.4992 40.5924 30.5638C40.4594 30.6284 40.3411 30.7194 40.2445 30.8313C40.1479 30.9431 40.0751 31.0734 40.0304 31.2143L38.7715 34.5668L37.4844 31.2143C37.4067 31.0069 37.2676 30.828 37.0856 30.7017C36.9037 30.5753 36.6875 30.5074 36.466 30.5071C36.2444 30.5074 36.0282 30.5753 35.8463 30.7017C35.6643 30.828 35.5253 31.0069 35.4476 31.2143L34.1745 34.5668L32.9015 31.2143C32.8626 31.0643 32.7925 30.9242 32.6958 30.8031C32.5991 30.682 32.478 30.5826 32.3403 30.5114C32.2027 30.4402 32.0516 30.3989 31.8968 30.39C31.7421 30.3811 31.5872 30.4049 31.4423 30.4598C31.2974 30.5148 31.1657 30.5998 31.0558 30.709C30.9459 30.8183 30.8602 30.9494 30.8044 31.094C30.7486 31.2386 30.7239 31.3933 30.7318 31.5481C30.7397 31.7029 30.7802 31.8542 30.8506 31.9923L33.1702 38.0466C33.2502 38.2514 33.3903 38.4273 33.5721 38.551C33.7539 38.6747 33.9688 38.7405 34.1887 38.7397C34.4102 38.7394 34.6264 38.6715 34.8084 38.5451C34.9903 38.4187 35.1294 38.2399 35.2071 38.0324L36.466 34.68L37.7532 38.0466C37.8331 38.2514 37.9732 38.4273 38.1549 38.551C38.3367 38.6747 38.5517 38.7405 38.7715 38.7397Z" fill="#E3F2FD"/>
<path d="M46.056 38.7397C46.2771 38.7374 46.4923 38.6688 46.6739 38.5427C46.8555 38.4166 46.9951 38.2388 47.0744 38.0325L48.3333 34.68L49.6204 38.0466C49.7004 38.2514 49.8404 38.4273 50.0222 38.551C50.204 38.6747 50.419 38.7405 50.6389 38.7397C50.8604 38.7394 51.0765 38.6715 51.2585 38.5451C51.4404 38.4187 51.5796 38.2399 51.6572 38.0325L53.9345 31.9782C54.0358 31.7062 54.0249 31.4051 53.9042 31.1411C53.7835 30.8772 53.563 30.672 53.291 30.5707C53.019 30.4694 52.7179 30.4803 52.454 30.601C52.1901 30.7217 51.9849 30.9424 51.8836 31.2143L50.6247 34.5668L49.3517 31.2143C49.2698 31.0069 49.1278 30.8286 48.9438 30.7025C48.7597 30.5765 48.5422 30.5084 48.3191 30.5071C48.0976 30.5074 47.8814 30.5753 47.6995 30.7017C47.5175 30.828 47.3785 31.0069 47.3008 31.2143L46.0419 34.5668L44.7547 31.2143C44.7036 31.0806 44.6267 30.9583 44.5283 30.8542C44.4299 30.7502 44.312 30.6665 44.1813 30.6081C44.0507 30.5496 43.9098 30.5175 43.7667 30.5135C43.6236 30.5096 43.481 30.5338 43.3473 30.5849C43.2136 30.6359 43.0912 30.7129 42.9872 30.8112C42.8832 30.9096 42.7996 31.0275 42.7412 31.1582C42.6827 31.2889 42.6505 31.4299 42.6465 31.573C42.6426 31.7161 42.6668 31.8586 42.7179 31.9923L45.0234 38.0466C45.1059 38.2526 45.2486 38.4289 45.4328 38.5525C45.617 38.6762 45.8342 38.7414 46.056 38.7397Z" fill="#E3F2FD"/>
<path d="M55.1933 21.1993H17.3142C15.3834 21.2031 13.5327 21.9718 12.1674 23.3372C10.8021 24.7026 10.0334 26.5533 10.0297 28.4843V40.1259C10.0297 42.0593 10.7967 43.9137 12.1624 45.2821C13.5281 46.6506 15.3809 47.4213 17.3142 47.425H34.7544C35.0237 47.3944 35.2722 47.2656 35.4527 47.0634C35.6332 46.8613 35.733 46.5997 35.733 46.3287C35.733 46.0577 35.6332 45.7962 35.4527 45.594C35.2722 45.3918 35.0237 45.263 34.7544 45.2324H17.3142C15.9599 45.2324 14.6611 44.6945 13.7035 43.7368C12.7459 42.7791 12.2079 41.4803 12.2079 40.1259V28.4843C12.2079 27.1299 12.7459 25.8311 13.7035 24.8734C14.6611 23.9158 15.9599 23.3778 17.3142 23.3778H55.1933C56.5451 23.3815 57.8403 23.9212 58.7948 24.8784C59.7494 25.8357 60.2854 27.1324 60.2854 28.4843V40.1259C60.2854 41.4778 59.7494 42.7745 58.7948 43.7318C57.8403 44.689 56.5451 45.2287 55.1933 45.2324H47.4421C47.2877 45.2148 47.1313 45.2301 46.9832 45.2772C46.8351 45.3243 46.6986 45.4021 46.5827 45.5056C46.4668 45.6091 46.374 45.7359 46.3105 45.8778C46.247 46.0196 46.2141 46.1733 46.2141 46.3287C46.2141 46.4841 46.247 46.6378 46.3105 46.7797C46.374 46.9215 46.4668 47.0484 46.5827 47.1518C46.6986 47.2553 46.8351 47.3331 46.9832 47.3802C47.1313 47.4273 47.2877 47.4426 47.4421 47.425H55.1933C57.1266 47.4213 58.9794 46.6506 60.3451 45.2821C61.7108 43.9137 62.4778 42.0593 62.4778 40.1259V28.4843C62.4741 26.5533 61.7054 24.7026 60.3401 23.3372C58.9748 21.9718 57.1241 21.2031 55.1933 21.1993Z" fill="#E3F2FD"/>
</svg>
