<svg width="1035" height="123" viewBox="0 0 1035 123" fill="none" xmlns="http://www.w3.org/2000/svg">
<path d="M157.113 49.6461V1" stroke="white" stroke-width="2" stroke-linecap="round" stroke-linejoin="round"/>
<path d="M85.2156 49.6461V1" stroke="white" stroke-width="2" stroke-linecap="round" stroke-linejoin="round"/>
<path d="M229.024 49.6461V1" stroke="white" stroke-width="2" stroke-linecap="round" stroke-linejoin="round"/>
<path d="M300.921 49.6461V1" stroke="white" stroke-width="2" stroke-linecap="round" stroke-linejoin="round"/>
<path d="M372.818 49.6461V1" stroke="white" stroke-width="2" stroke-linecap="round" stroke-linejoin="round"/>
<path d="M444.729 49.6461V1" stroke="white" stroke-width="2" stroke-linecap="round" stroke-linejoin="round"/>
<path d="M516.625 49.6461V1" stroke="white" stroke-width="2" stroke-linecap="round" stroke-linejoin="round"/>
<path d="M588.522 49.6461V1" stroke="white" stroke-width="2" stroke-linecap="round" stroke-linejoin="round"/>
<path d="M660.434 49.6461V1" stroke="white" stroke-width="2" stroke-linecap="round" stroke-linejoin="round"/>
<path d="M732.331 49.6461V1" stroke="white" stroke-width="2" stroke-linecap="round" stroke-linejoin="round"/>
<path d="M804.228 49.6461V1" stroke="white" stroke-width="2" stroke-linecap="round" stroke-linejoin="round"/>
<path d="M876.139 49.6461V1" stroke="white" stroke-width="2" stroke-linecap="round" stroke-linejoin="round"/>
<path d="M948.036 49.6461V1" stroke="white" stroke-width="2" stroke-linecap="round" stroke-linejoin="round"/>
<path fill-rule="evenodd" clip-rule="evenodd" d="M890.679 34.8641C738.908 14.7352 801.724 49.7735 556.867 40.197C541.096 39.5887 510.19 36.3777 480.486 36.5898C456.03 36.7596 441.433 42.8563 406.086 39.1643C223.168 20.0821 164.637 41.5125 114.353 36.5475C82.3441 33.4072 28.9341 31.6249 5.96329 46.4493C-4.31982 53.0552 -0.486642 69.0819 11.6211 70.4965C40.2356 73.948 97.0545 66.1821 115.343 65.786C269.194 62.2214 12.8658 144.477 419.452 116.71C551.732 107.685 569.159 134.561 767.961 115.295C906.083 101.871 852.178 121.632 944.768 90.0313C971.77 80.8085 988.39 102.465 1016.18 95.9866C1060.17 85.7453 1026.93 52.9703 890.75 34.9207L890.679 34.8641Z" fill="white"/>
</svg>
