<svg width="1034" height="127" viewBox="0 0 1034 127" fill="none" xmlns="http://www.w3.org/2000/svg">
<path d="M85.2156 50.0629V1.41675" stroke="white" stroke-width="2" stroke-linecap="round" stroke-linejoin="round"/>
<path d="M157.113 50.0629V1.41675" stroke="white" stroke-width="2" stroke-linecap="round" stroke-linejoin="round"/>
<path d="M229.024 50.0629V1.41675" stroke="white" stroke-width="2" stroke-linecap="round" stroke-linejoin="round"/>
<path d="M300.921 50.0629V1.41675" stroke="white" stroke-width="2" stroke-linecap="round" stroke-linejoin="round"/>
<path d="M372.818 50.0629V1.41675" stroke="white" stroke-width="2" stroke-linecap="round" stroke-linejoin="round"/>
<path d="M444.729 50.0629V1.41675" stroke="white" stroke-width="2" stroke-linecap="round" stroke-linejoin="round"/>
<path d="M516.625 50.0629V1.41675" stroke="white" stroke-width="2" stroke-linecap="round" stroke-linejoin="round"/>
<path d="M588.522 50.0629V1.41675" stroke="white" stroke-width="2" stroke-linecap="round" stroke-linejoin="round"/>
<path d="M660.434 50.0629V1.41675" stroke="white" stroke-width="2" stroke-linecap="round" stroke-linejoin="round"/>
<path d="M732.331 50.0629V1.41675" stroke="white" stroke-width="2" stroke-linecap="round" stroke-linejoin="round"/>
<path d="M804.228 50.0629V1.41675" stroke="white" stroke-width="2" stroke-linecap="round" stroke-linejoin="round"/>
<path d="M876.139 50.0629V1.41675" stroke="white" stroke-width="2" stroke-linecap="round" stroke-linejoin="round"/>
<path d="M948.036 50.0629V1.41675" stroke="white" stroke-width="2" stroke-linecap="round" stroke-linejoin="round"/>
<path fill-rule="evenodd" clip-rule="evenodd" d="M888.05 47.9482C717.007 33.7231 797.172 50.5514 546.861 41.931C469.414 39.271 444.664 46.099 392.734 40.8926C205.73 22.1582 145.95 43.254 94.5694 38.261C73.3897 36.2126 43.0442 34.7473 17.9466 37.9907C-5.45955 41.0064 -6.19684 74.037 17.0647 77.9631C43.4345 82.4156 103.359 96.9537 140.413 96.6834C295.784 95.4885 127.864 123.91 523.195 126.67C653.208 127.58 734.341 126.812 787.385 120.254C839.228 113.839 871.757 124.92 917.297 91.5909C950.938 66.9673 987.139 96.9964 1016.3 97.9779C1059.08 99.4004 1024.77 36.9237 908.434 47.365L888.05 47.9482Z" fill="white"/>
</svg>
