<svg width="1034" height="128" viewBox="0 0 1034 128" fill="none" xmlns="http://www.w3.org/2000/svg">
<path d="M85.2156 50.5907V1.94458" stroke="white" stroke-width="2" stroke-linecap="round" stroke-linejoin="round"/>
<path d="M157.113 50.5907V1.94458" stroke="white" stroke-width="2" stroke-linecap="round" stroke-linejoin="round"/>
<path d="M229.024 50.5907V1.94458" stroke="white" stroke-width="2" stroke-linecap="round" stroke-linejoin="round"/>
<path d="M300.921 50.5907V1.94458" stroke="white" stroke-width="2" stroke-linecap="round" stroke-linejoin="round"/>
<path d="M372.818 50.5907V1.94458" stroke="white" stroke-width="2" stroke-linecap="round" stroke-linejoin="round"/>
<path d="M444.729 50.5907V1.94458" stroke="white" stroke-width="2" stroke-linecap="round" stroke-linejoin="round"/>
<path d="M516.625 50.5907V1.94458" stroke="white" stroke-width="2" stroke-linecap="round" stroke-linejoin="round"/>
<path d="M588.522 50.5907V1.94458" stroke="white" stroke-width="2" stroke-linecap="round" stroke-linejoin="round"/>
<path d="M660.434 50.5907V1.94458" stroke="white" stroke-width="2" stroke-linecap="round" stroke-linejoin="round"/>
<path d="M732.331 50.5907V1.94458" stroke="white" stroke-width="2" stroke-linecap="round" stroke-linejoin="round"/>
<path d="M804.228 50.5907V1.94458" stroke="white" stroke-width="2" stroke-linecap="round" stroke-linejoin="round"/>
<path d="M876.139 50.5907V1.94458" stroke="white" stroke-width="2" stroke-linecap="round" stroke-linejoin="round"/>
<path d="M948.036 50.5907V1.94458" stroke="white" stroke-width="2" stroke-linecap="round" stroke-linejoin="round"/>
<path fill-rule="evenodd" clip-rule="evenodd" d="M992.04 33.0645C992.153 31.65 992.407 32.2865 992.52 30.8013C995.986 31.3388 1000.78 23.0495 1001.79 16.7831C1001.9 16.09 1002.39 15.6232 1002.27 17.1509C1001.21 25.2845 996.028 32.527 992.04 33.0645Z" fill="#AD988E"/>
<path fill-rule="evenodd" clip-rule="evenodd" d="M973.652 89.7875C977.683 95.2194 1000.39 94.2151 1000.94 89.8866C1001.56 84.8932 968.744 83.1958 973.652 89.7875Z" fill="#D9E4EB"/>
<path fill-rule="evenodd" clip-rule="evenodd" d="M994.755 50.6756C994.755 50.2088 994.755 49.6005 994.883 48.8508C1005.72 48.5113 1014.68 42.3157 1021.86 35.6532C1022.17 35.3703 1022.9 35.257 1022.17 35.8653C1014.69 44.7203 1005.62 49.8552 994.755 50.6756Z" fill="#AD988E"/>
<path fill-rule="evenodd" clip-rule="evenodd" d="M1007.47 46.9411C1008.36 46.5592 1008.49 46.4602 1009.38 46.0783C1008.84 47.8606 1016.31 47.3231 1024.02 46.0783C1025.22 45.9085 1025.24 46.3046 1023.88 46.6158C1015.26 48.3981 1009.17 48.879 1007.47 46.9128V46.9411Z" fill="#AD988E"/>
<path fill-rule="evenodd" clip-rule="evenodd" d="M1014.83 41.9337C1014.35 42.0893 1013.99 42.4995 1013.51 42.641C1013.79 39.9167 1014.32 37.2231 1015.08 34.5922C1015.25 33.7859 1015.56 33.9981 1015.45 34.7336C1015.05 37.1383 1014.22 40.9576 1014.83 41.9337Z" fill="#AD988E"/>
<path fill-rule="evenodd" clip-rule="evenodd" d="M987.683 72.0351C988.334 71.3561 988.107 70.3235 988.758 69.6445C990.852 73.6336 1003.54 71.7522 1014.22 67.7208C1015.79 67.1408 1016.85 67.3813 1014.39 68.4564C1001.22 74.2136 991.332 74.3408 987.669 72.0351H987.683Z" fill="#AD988E"/>
<path fill-rule="evenodd" clip-rule="evenodd" d="M980.285 89.5614C981.827 90.5092 982.548 90.2545 983.539 88.8541C982.888 83.6911 985.052 77.651 987.259 73.2235C988.652 71.159 989.932 69.0198 991.092 66.8155C993.337 63.0485 994.781 58.8592 995.335 54.509C996.042 46.63 994.119 39.4017 993.581 32.1451C992.959 23.8417 993.652 15.5384 993.426 6.82482C993.426 6.01853 992.931 6.08922 992.959 6.52773C991.981 15.4131 991.687 24.3605 992.082 33.2909C992.478 40.1514 994.274 47.2666 993.185 54.311C992.391 58.8693 990.641 63.2079 988.051 67.0419C981.587 77.6651 980.271 80.7771 980.257 89.5049L980.285 89.5614Z" fill="#AD988E"/>
<path fill-rule="evenodd" clip-rule="evenodd" d="M988.913 68.0461L990.851 65.1463C987.499 66.476 984.543 50.8877 985.193 42.0044C985.193 40.4484 984.472 40.7737 984.444 42.1741C984.147 52.4296 984.302 62.2465 988.899 68.0461H988.913Z" fill="#AD988E"/>
<path fill-rule="evenodd" clip-rule="evenodd" d="M887.435 37.3281C736.599 17.2054 799.028 52.2432 555.68 42.663C539.992 42.0545 509.29 38.8422 479.77 39.0545C455.45 39.2243 411.394 41.8847 376.068 41.2479C191.452 38.1488 165.853 43.9791 115.893 39.0121C87.2298 36.1819 41.3885 34.4555 15.8039 44.9272C1.32478 50.8706 -4.42475 74.149 3.72856 87.5642C9.59052 97.2293 19.1918 98.517 35.0345 97.8661C121.235 94.3 34.3457 94.3992 331.183 115.838C456.842 124.909 508.123 137.899 712.575 115.838C840.877 101.998 843.857 69.9037 921.848 94.7388C948.894 103.343 969.812 123.041 1012.1 98.4038C1064.53 67.8093 1022.77 55.3706 887.421 37.314L887.435 37.3281Z" fill="white"/>
</svg>
