<svg width="1034" height="131" viewBox="0 0 1034 131" fill="none" xmlns="http://www.w3.org/2000/svg">
<path d="M85.2156 50.1184V1.47229" stroke="white" stroke-width="2" stroke-linecap="round" stroke-linejoin="round"/>
<path d="M157.113 50.1184V1.47229" stroke="white" stroke-width="2" stroke-linecap="round" stroke-linejoin="round"/>
<path d="M229.024 50.1184V1.47229" stroke="white" stroke-width="2" stroke-linecap="round" stroke-linejoin="round"/>
<path d="M300.921 50.1184V1.47229" stroke="white" stroke-width="2" stroke-linecap="round" stroke-linejoin="round"/>
<path d="M372.818 50.1184V1.47229" stroke="white" stroke-width="2" stroke-linecap="round" stroke-linejoin="round"/>
<path d="M444.729 50.1184V1.47229" stroke="white" stroke-width="2" stroke-linecap="round" stroke-linejoin="round"/>
<path d="M516.625 50.1184V1.47229" stroke="white" stroke-width="2" stroke-linecap="round" stroke-linejoin="round"/>
<path d="M588.522 50.1184V1.47229" stroke="white" stroke-width="2" stroke-linecap="round" stroke-linejoin="round"/>
<path d="M660.434 50.1184V1.47229" stroke="white" stroke-width="2" stroke-linecap="round" stroke-linejoin="round"/>
<path d="M732.331 50.1184V1.47229" stroke="white" stroke-width="2" stroke-linecap="round" stroke-linejoin="round"/>
<path d="M804.228 50.1184V1.47229" stroke="white" stroke-width="2" stroke-linecap="round" stroke-linejoin="round"/>
<path d="M876.139 50.1184V1.47229" stroke="white" stroke-width="2" stroke-linecap="round" stroke-linejoin="round"/>
<path d="M948.036 50.1184V1.47229" stroke="white" stroke-width="2" stroke-linecap="round" stroke-linejoin="round"/>
<path fill-rule="evenodd" clip-rule="evenodd" d="M145.362 38.4221C304.809 15.6885 235.007 53.213 481.759 43.7126C497.652 43.1091 528.798 39.9236 558.731 40.1201C583.377 40.3025 622.875 50.1117 658.51 46.7858C864.182 27.5886 877.011 45.0176 927.684 40.092C954.425 37.5099 996.004 35.8821 1022.63 43.7126C1040.06 48.8487 1036.51 74.1503 1018.35 74.5853C987.836 75.273 942.679 68.523 926.715 69.0984C763.52 74.9642 735.382 130.451 612.013 125.497C487.005 120.488 481.702 146.926 283.1 114.706C154.001 93.7825 224.658 114.116 131.436 82.7666C104.154 73.5889 47.7932 87.7203 19.0427 87.7203C-30.1624 87.8045 17.4035 42.632 145.362 38.366V38.4221Z" fill="white"/>
</svg>
