<svg width="142" height="83" viewBox="0 0 142 83" fill="none" xmlns="http://www.w3.org/2000/svg">
<g clip-path="url(#clip0_1_1601)">
<path fill-rule="evenodd" clip-rule="evenodd" d="M7.23738 60.0977C13.1248 58.8395 36.0091 57.6237 43.0712 56.3796C46.1847 55.8282 117.583 54.1459 117.329 56.3796C123.372 59.6736 128.537 84.1735 80.674 81.6429C64.0591 80.7523 44.5572 85.0499 28.9896 81.7418C-7.73583 73.9239 -2.28716 62.1476 7.23738 60.1119V60.0977Z" fill="#DAE1E5"/>
<path fill-rule="evenodd" clip-rule="evenodd" d="M11.0301 61.9637C6.8552 61.2993 8.46857 58.8678 11.1575 58.7123C39.6462 56.6341 81.2542 58.486 110.366 52.4635C138.43 46.6672 127.504 28.8685 117.201 30.6498C112.588 31.4556 113.507 27.2567 115.956 26.974C124.943 25.9137 140.015 36.3047 125.862 50.0603C115.361 60.2674 27.6309 60.7621 11.0018 61.9637H11.0301Z" fill="#868685"/>
<path fill-rule="evenodd" clip-rule="evenodd" d="M12.3747 78.9992C7.33644 77.7976 8.94981 74.6025 13.1531 75.1115C42.873 76.0021 83.3205 79.3527 113.989 74.9985C149.483 69.9232 136.746 43.5288 124.122 44.9426C119.876 45.4232 121.801 43.0622 123.57 42.525C134.764 39.1744 154.266 62.2183 128.481 74.5601C114.71 81.1481 29.7396 79.5223 12.4313 78.9992H12.3747Z" fill="#C5C5C6"/>
<path fill-rule="evenodd" clip-rule="evenodd" d="M46.0855 56.1392L41.3445 56.2947L41.7974 78.0378L46.5667 78.6599L46.0855 56.1392Z" fill="#9B9B9B"/>
<path fill-rule="evenodd" clip-rule="evenodd" d="M80.9004 78.9709L76.8952 79.395L73.5411 57.9346L77.8576 55.7999L80.9004 78.9709Z" fill="#9B9B9B"/>
<path fill-rule="evenodd" clip-rule="evenodd" d="M91.6279 69.5131C92.5708 68.5323 93.197 67.2911 93.4252 65.9505C71.7619 68.428 49.9527 69.401 28.1545 68.8627C28.381 69.5695 29.0603 71.5912 29.1452 71.9588C48.7179 73.2594 72.3382 72.6798 88.203 70.0079L91.6279 69.5131Z" fill="#A55A44"/>
<path fill-rule="evenodd" clip-rule="evenodd" d="M30.4896 50.2723C19.6206 17.0638 11.299 -4.39661 9.45923 3.61923C17.8799 18.8592 23.6116 35.9369 29.0036 53.3116L30.4189 50.3004L30.4896 50.2723Z" fill="#CA6C32"/>
<path fill-rule="evenodd" clip-rule="evenodd" d="M28.2253 67.9439C22.5644 40.0086 16.9884 28.1191 7.81763 8.48236C6.84112 6.41832 7.22323 4.01493 6.40239 1.54091C5.42588 3.59082 3.40209 4.55215 4.6758 11.7904C12.0775 32.0068 18.8282 51.7283 26.2723 71.9305C27.7866 72.1426 28.1263 71.6619 29.1028 71.9305C28.9188 70.6864 27.8715 68.6366 28.1404 67.9156L28.2253 67.9439Z" fill="#CA6C32"/>
<path fill-rule="evenodd" clip-rule="evenodd" d="M28.197 68.8627C47.0479 69.824 75.197 69.8099 93.4535 66.2756C93.7375 60.0711 92.1871 53.9202 88.9955 48.5899C71.3051 46.5682 46.4111 46.7238 30.8576 47.77C27.7238 54.3324 26.7908 61.7288 28.197 68.8627Z" fill="#FDDC9F"/>
<path fill-rule="evenodd" clip-rule="evenodd" d="M30.8577 47.8829C30.3765 48.8443 30.0368 49.7915 29.6689 50.7104C25.3099 33.7456 17.611 14.5896 11.667 4.24115C9.92631 1.21577 6.45898 4.59456 9.78478 10.5888C17.9082 25.2491 22.72 40.7011 27.8432 58.0759C27.6117 61.6838 27.7302 65.3057 28.197 68.8909C21.97 48.6746 15.7571 28.7411 6.45898 9.92436C5.15696 -0.409994 7.37888 -1.38553 12.3322 1.20159C20.9321 15.6792 27.1845 31.4249 30.8577 47.8546V47.8829Z" fill="#EBA24C"/>
<path fill-rule="evenodd" clip-rule="evenodd" d="M10.1244 75.6062C10.833 75.2793 11.6089 75.1243 12.3888 75.1539C32.5418 75.8749 61.3701 77.5431 83.9856 77.1331C83.5752 77.4583 108.724 76.1435 116.097 74.6591C114.516 75.7846 112.872 76.8182 111.172 77.7551C98.6474 79.1688 81.4523 79.0556 81.1834 79.2677C56.8838 79.8615 18.6017 79.1688 18.6017 79.1688C18.6017 79.1688 11.667 77.5147 9.72815 75.79L10.1244 75.6062Z" fill="#9B9B9B"/>
<path fill-rule="evenodd" clip-rule="evenodd" d="M92.3214 56.3087C91.878 54.642 91.2957 53.0153 90.5807 51.4456L34.9053 52.4917C34.5515 53.6369 34.2543 54.7961 34.0137 55.9836L88.7833 56.2946L92.3214 56.3087Z" fill="#FAC685"/>
<path fill-rule="evenodd" clip-rule="evenodd" d="M34.1551 69.0323C53.0061 69.9936 75.197 69.8099 93.4535 66.2756C93.5242 65.2825 93.5242 64.2857 93.4535 63.2926L34.0136 66.4594C33.9951 67.3221 34.0662 68.1843 34.2259 69.0323H34.1551Z" fill="#FDD17A"/>
<path fill-rule="evenodd" clip-rule="evenodd" d="M90.7928 51.8132C90.5664 51.488 90.4532 51.1769 90.2267 50.8518C81.0985 50.8518 68.4887 51.1487 59.3604 51.2194C51.3927 51.7707 33.9994 51.6293 35.3014 52.6331C35.9383 53.142 69.4652 51.2193 87.2831 51.7283L90.7928 51.8132Z" fill="#D0935F"/>
<path fill-rule="evenodd" clip-rule="evenodd" d="M59.6294 56.6622C67.3566 56.6622 82.7969 56.832 82.6836 56.4078C82.3015 54.9941 35.4148 55.2626 35.6836 56.5067C35.7686 56.9026 50.954 56.6622 59.6294 56.6622Z" fill="#D0935F"/>
<path fill-rule="evenodd" clip-rule="evenodd" d="M93.4111 64.155C93.4111 63.7733 93.4111 63.2361 93.3404 62.7413C77.6454 63.3209 65.3187 64.155 65.2762 64.8477C65.2338 65.5404 77.6454 63.9571 93.581 64.1267L93.4111 64.155Z" fill="#E9B07B"/>
<path fill-rule="evenodd" clip-rule="evenodd" d="M34.1269 67.7601C34.0136 67.1946 34.1269 66.6149 33.9712 66.0635C42.7457 65.8797 59.9266 64.6498 60.1672 65.5546C60.4078 66.4594 42.8023 66.9684 34.1269 67.7601Z" fill="#E19A61"/>
<path fill-rule="evenodd" clip-rule="evenodd" d="M89.4059 60.5218L88.7125 59.5604C79.5842 59.5604 74.5601 59.7865 65.3894 59.8431C57.4216 60.4086 46.8356 59.7442 48.1659 60.8186C48.8028 61.3134 71.5881 59.9705 89.4059 60.5218Z" fill="#D0935F"/>
</g>
<defs>
<clipPath id="clip0_1_1601">
<rect width="141" height="83" fill="white" transform="translate(0.203613)"/>
</clipPath>
</defs>
</svg>
